<svg width="64" height="64" viewBox="0 0 64 64" fill="none" xmlns="http://www.w3.org/2000/svg">
<path fill-rule="evenodd" clip-rule="evenodd" d="M64 3C64 1.34315 62.6569 0 61 0H3C1.34315 0 0 1.34315 0 3V61C0 62.6569 1.34314 64 3 64H45.4407C46.2363 64 46.9994 63.6839 47.562 63.1213L63.1213 47.562C63.6839 46.9994 64 46.2363 64 45.4407V3Z" fill="#111111"/>
<path d="M18.1259 27.311C19.4925 26.7218 20.601 25.9156 21.4514 24.8922C22.3017 23.8585 22.7268 22.8455 22.7268 21.8532C22.7268 21.2743 22.6206 20.8505 22.408 20.5817C22.1954 20.3026 21.8664 20.1631 21.421 20.1631C21.1173 20.1631 20.8187 20.2096 20.5251 20.3026C20.2315 20.3957 19.8975 20.5507 19.5229 20.7678L18.1259 27.311ZM9 18.6746L20.6617 17.3101C21.7551 17.1861 22.5598 17.1034 23.0761 17.062C23.5923 17.0207 24.0023 17 24.3061 17C27.3936 17 29.7877 17.7908 31.4884 19.3723C33.189 20.9539 34.0394 23.1763 34.0394 26.0396C34.0394 28.6135 33.2649 30.7015 31.7161 32.3038C30.1673 33.906 28.1528 34.7071 25.6727 34.7071C24.2655 34.7071 22.9749 34.4952 21.8006 34.0714C20.6263 33.6372 19.6292 33.0067 18.8092 32.1797L19.7659 37.6996L24.7464 40.7852L9.44035 39.3122L11.5814 37.7616L13.7983 20.7988L9 18.6746ZM43.796 25.4554C43.5328 25.7552 43.3303 26.086 43.1886 26.4477C43.057 26.8096 42.9912 27.1972 42.9912 27.6107C42.9912 28.4996 43.2848 29.2801 43.8719 29.952C44.459 30.6136 45.1272 30.9443 45.8762 30.9443C46.2508 30.9443 46.6051 30.8668 46.9392 30.7118C47.2834 30.5463 47.6377 30.2879 48.0021 29.9364C47.4251 28.7684 46.7924 27.8174 46.1041 27.0834C45.4157 26.3495 44.6464 25.8069 43.796 25.4554ZM54 22.7575L51.7679 24.0289C52.4664 26.396 52.9928 28.5668 53.3471 30.5412C53.7014 32.5052 53.8785 34.2366 53.8785 35.7355C53.8785 38.9502 53.0991 41.4466 51.5401 43.2245C49.9913 45.0128 47.8149 45.907 45.0107 45.907C43.8365 45.907 42.6774 45.7674 41.5335 45.4883C40.3997 45.2092 39.2254 44.7751 38.0107 44.1859L35.8393 46L38.9825 39.3947C39.8835 40.4387 40.8299 41.2295 41.822 41.767C42.8242 42.3045 43.8567 42.5733 44.9196 42.5733C46.1243 42.5733 47.1619 42.0668 48.0325 41.0538C48.903 40.0408 49.3383 38.8417 49.3383 37.4566C49.3383 36.919 49.2776 36.4022 49.1561 35.906C49.0448 35.3995 48.8676 34.8879 48.6247 34.371C47.7238 35.8491 46.7266 36.9345 45.6334 37.6271C44.54 38.3197 43.2747 38.666 41.8372 38.666C39.9341 38.666 38.3397 37.9269 37.054 36.4487C35.7684 34.9705 35.1256 33.1357 35.1256 30.9443C35.1256 28.4221 35.8038 26.3392 37.1603 24.6957C38.5169 23.0417 40.2226 22.2148 42.2775 22.2148C43.4113 22.2148 44.5147 22.5094 45.5877 23.0986C46.6709 23.6878 47.7339 24.5768 48.7766 25.7655L47.3796 22.2148L54 22.7575Z" fill="white"/>
</svg>
