<svg width="45" height="29" viewBox="0 0 45 29" fill="#FFF" xmlns="http://www.w3.org/2000/svg">
<path d="M9.12594 10.311C10.4925 9.72184 11.601 8.91557 12.4514 7.89224C13.3017 6.85855 13.7268 5.84551 13.7268 4.85317C13.7268 4.2743 13.6206 3.85049 13.408 3.58173C13.1954 3.30264 12.8664 3.16309 12.421 3.16309C12.1173 3.16309 11.8187 3.20961 11.5251 3.30264C11.2315 3.39567 10.8975 3.55072 10.5229 3.76779L9.12594 10.311ZM0 1.67458L11.6617 0.310107C12.7551 0.186064 13.5598 0.103369 14.0761 0.0620211C14.5923 0.0206739 15.0023 0 15.3061 0C18.3936 0 20.7877 0.790771 22.4884 2.37232C24.189 3.95386 25.0394 6.17629 25.0394 9.03962C25.0394 11.6135 24.2649 13.7015 22.7161 15.3038C21.1673 16.906 19.1528 17.7071 16.6727 17.7071C15.2655 17.7071 13.9749 17.4952 12.8006 17.0714C11.6263 16.6372 10.6292 16.0067 9.8092 15.1797L10.7659 20.6996L15.7464 23.7852L0.440352 22.3122L2.58137 20.7616L4.79833 3.79881L0 1.67458ZM34.796 8.45543C34.5328 8.75522 34.3303 9.08596 34.1886 9.44773C34.057 9.80958 33.9912 10.1972 33.9912 10.6107C33.9912 11.4996 34.2848 12.2801 34.8719 12.952C35.459 13.6136 36.1272 13.9443 36.8762 13.9443C37.2508 13.9443 37.6051 13.8668 37.9392 13.7118C38.2834 13.5463 38.6377 13.2879 39.0021 12.9364C38.4251 11.7684 37.7924 10.8174 37.1041 10.0834C36.4157 9.34953 35.6464 8.80691 34.796 8.45543ZM45 5.75751L42.7679 7.02893C43.4664 9.39604 43.9928 11.5668 44.3471 13.5412C44.7014 15.5052 44.8785 17.2366 44.8785 18.7355C44.8785 21.9502 44.0991 24.4466 42.5401 26.2245C40.9913 28.0128 38.8149 28.907 36.0107 28.907C34.8365 28.907 33.6774 28.7674 32.5335 28.4883C31.3997 28.2092 30.2254 27.7751 29.0107 27.1859L26.8393 29L29.9825 22.3947C30.8835 23.4387 31.8299 24.2295 32.822 24.767C33.8242 25.3045 34.8567 25.5733 35.9196 25.5733C37.1243 25.5733 38.1619 25.0668 39.0325 24.0538C39.903 23.0408 40.3383 21.8417 40.3383 20.4566C40.3383 19.919 40.2776 19.4022 40.1561 18.906C40.0448 18.3995 39.8676 17.8879 39.6247 17.371C38.7238 18.8491 37.7266 19.9345 36.6334 20.6271C35.54 21.3197 34.2747 21.666 32.8372 21.666C30.9341 21.666 29.3397 20.9269 28.054 19.4487C26.7684 17.9705 26.1256 16.1357 26.1256 13.9443C26.1256 11.4221 26.8038 9.33924 28.1603 7.69568C29.5169 6.04175 31.2226 5.21481 33.2775 5.21481C34.4113 5.21481 35.5147 5.50941 36.5877 6.09862C37.6709 6.68782 38.7339 7.57681 39.7766 8.76551L38.3796 5.21481L45 5.75751Z" fill="#FFF"/>
</svg>
